<mxfile host="65bd71144e">
    <diagram name="Page-1" id="-mRH3HJ6anvMZXFPauNU">
        <mxGraphModel dx="1345" dy="585" grid="1" gridSize="10" guides="1" tooltips="1" connect="1" arrows="1" fold="1" page="1" pageScale="1" pageWidth="827" pageHeight="1169" background="#000000" math="0" shadow="0">
            <root>
                <mxCell id="0"/>
                <mxCell id="1" parent="0"/>
                <mxCell id="qj6_okT3EaDq7fvUNAZF-92" value="Le Bar'App" style="text;html=1;align=center;verticalAlign=middle;whiteSpace=wrap;rounded=0;spacing=2;fontSize=16;" parent="1" vertex="1">
                    <mxGeometry x="382" y="30" width="88" height="30" as="geometry"/>
                </mxCell>
                <mxCell id="3" value="User" style="shape=table;startSize=30;container=1;collapsible=0;childLayout=tableLayout;fixedRows=1;rowLines=0;fontStyle=1;" parent="1" vertex="1">
                    <mxGeometry x="40" y="80" width="180" height="210" as="geometry"/>
                </mxCell>
                <mxCell id="4" value="" style="shape=tableRow;horizontal=0;startSize=0;swimlaneHead=0;swimlaneBody=0;top=0;left=0;bottom=0;right=0;collapsible=0;dropTarget=0;fillColor=none;points=[[0,0.5],[1,0.5]];portConstraint=eastwest;" parent="3" vertex="1">
                    <mxGeometry y="30" width="180" height="30" as="geometry"/>
                </mxCell>
                <mxCell id="5" value="INT" style="shape=partialRectangle;html=1;whiteSpace=wrap;connectable=0;fillColor=none;top=0;left=0;bottom=0;right=0;overflow=hidden;pointerEvents=1;" parent="4" vertex="1">
                    <mxGeometry width="40" height="30" as="geometry">
                        <mxRectangle width="40" height="30" as="alternateBounds"/>
                    </mxGeometry>
                </mxCell>
                <mxCell id="6" value="id_user" style="shape=partialRectangle;html=1;whiteSpace=wrap;connectable=0;fillColor=none;top=0;left=0;bottom=0;right=0;align=left;spacingLeft=6;overflow=hidden;" parent="4" vertex="1">
                    <mxGeometry x="40" width="140" height="30" as="geometry">
                        <mxRectangle width="140" height="30" as="alternateBounds"/>
                    </mxGeometry>
                </mxCell>
                <mxCell id="7" value="" style="shape=tableRow;horizontal=0;startSize=0;swimlaneHead=0;swimlaneBody=0;top=0;left=0;bottom=0;right=0;collapsible=0;dropTarget=0;fillColor=none;points=[[0,0.5],[1,0.5]];portConstraint=eastwest;" parent="3" vertex="1">
                    <mxGeometry y="60" width="180" height="30" as="geometry"/>
                </mxCell>
                <mxCell id="8" value="String" style="shape=partialRectangle;html=1;whiteSpace=wrap;connectable=0;fillColor=none;top=0;left=0;bottom=0;right=0;overflow=hidden;" parent="7" vertex="1">
                    <mxGeometry width="40" height="30" as="geometry">
                        <mxRectangle width="40" height="30" as="alternateBounds"/>
                    </mxGeometry>
                </mxCell>
                <mxCell id="9" value="first_name" style="shape=partialRectangle;html=1;whiteSpace=wrap;connectable=0;fillColor=none;top=0;left=0;bottom=0;right=0;align=left;spacingLeft=6;overflow=hidden;" parent="7" vertex="1">
                    <mxGeometry x="40" width="140" height="30" as="geometry">
                        <mxRectangle width="140" height="30" as="alternateBounds"/>
                    </mxGeometry>
                </mxCell>
                <mxCell id="10" value="" style="shape=tableRow;horizontal=0;startSize=0;swimlaneHead=0;swimlaneBody=0;top=0;left=0;bottom=0;right=0;collapsible=0;dropTarget=0;fillColor=none;points=[[0,0.5],[1,0.5]];portConstraint=eastwest;" parent="3" vertex="1">
                    <mxGeometry y="90" width="180" height="30" as="geometry"/>
                </mxCell>
                <mxCell id="11" value="String" style="shape=partialRectangle;html=1;whiteSpace=wrap;connectable=0;fillColor=none;top=0;left=0;bottom=0;right=0;overflow=hidden;" parent="10" vertex="1">
                    <mxGeometry width="40" height="30" as="geometry">
                        <mxRectangle width="40" height="30" as="alternateBounds"/>
                    </mxGeometry>
                </mxCell>
                <mxCell id="12" value="last_name" style="shape=partialRectangle;html=1;whiteSpace=wrap;connectable=0;fillColor=none;top=0;left=0;bottom=0;right=0;align=left;spacingLeft=6;overflow=hidden;" parent="10" vertex="1">
                    <mxGeometry x="40" width="140" height="30" as="geometry">
                        <mxRectangle width="140" height="30" as="alternateBounds"/>
                    </mxGeometry>
                </mxCell>
                <mxCell id="13" style="shape=tableRow;horizontal=0;startSize=0;swimlaneHead=0;swimlaneBody=0;top=0;left=0;bottom=0;right=0;collapsible=0;dropTarget=0;fillColor=none;points=[[0,0.5],[1,0.5]];portConstraint=eastwest;" parent="3" vertex="1">
                    <mxGeometry y="120" width="180" height="30" as="geometry"/>
                </mxCell>
                <mxCell id="14" value="String" style="shape=partialRectangle;html=1;whiteSpace=wrap;connectable=0;fillColor=none;top=0;left=0;bottom=0;right=0;overflow=hidden;" parent="13" vertex="1">
                    <mxGeometry width="40" height="30" as="geometry">
                        <mxRectangle width="40" height="30" as="alternateBounds"/>
                    </mxGeometry>
                </mxCell>
                <mxCell id="15" value="mail" style="shape=partialRectangle;html=1;whiteSpace=wrap;connectable=0;fillColor=none;top=0;left=0;bottom=0;right=0;align=left;spacingLeft=6;overflow=hidden;" parent="13" vertex="1">
                    <mxGeometry x="40" width="140" height="30" as="geometry">
                        <mxRectangle width="140" height="30" as="alternateBounds"/>
                    </mxGeometry>
                </mxCell>
                <mxCell id="105" style="shape=tableRow;horizontal=0;startSize=0;swimlaneHead=0;swimlaneBody=0;top=0;left=0;bottom=0;right=0;collapsible=0;dropTarget=0;fillColor=none;points=[[0,0.5],[1,0.5]];portConstraint=eastwest;" parent="3" vertex="1">
                    <mxGeometry y="150" width="180" height="30" as="geometry"/>
                </mxCell>
                <mxCell id="106" value="String" style="shape=partialRectangle;html=1;whiteSpace=wrap;connectable=0;fillColor=none;top=0;left=0;bottom=0;right=0;overflow=hidden;" parent="105" vertex="1">
                    <mxGeometry width="40" height="30" as="geometry">
                        <mxRectangle width="40" height="30" as="alternateBounds"/>
                    </mxGeometry>
                </mxCell>
                <mxCell id="107" value="img" style="shape=partialRectangle;html=1;whiteSpace=wrap;connectable=0;fillColor=none;top=0;left=0;bottom=0;right=0;align=left;spacingLeft=6;overflow=hidden;" parent="105" vertex="1">
                    <mxGeometry x="40" width="140" height="30" as="geometry">
                        <mxRectangle width="140" height="30" as="alternateBounds"/>
                    </mxGeometry>
                </mxCell>
                <mxCell id="16" style="shape=tableRow;horizontal=0;startSize=0;swimlaneHead=0;swimlaneBody=0;top=0;left=0;bottom=0;right=0;collapsible=0;dropTarget=0;fillColor=none;points=[[0,0.5],[1,0.5]];portConstraint=eastwest;" parent="3" vertex="1">
                    <mxGeometry y="180" width="180" height="30" as="geometry"/>
                </mxCell>
                <mxCell id="17" value="String" style="shape=partialRectangle;html=1;whiteSpace=wrap;connectable=0;fillColor=none;top=0;left=0;bottom=0;right=0;overflow=hidden;" parent="16" vertex="1">
                    <mxGeometry width="40" height="30" as="geometry">
                        <mxRectangle width="40" height="30" as="alternateBounds"/>
                    </mxGeometry>
                </mxCell>
                <mxCell id="18" value="password" style="shape=partialRectangle;html=1;whiteSpace=wrap;connectable=0;fillColor=none;top=0;left=0;bottom=0;right=0;align=left;spacingLeft=6;overflow=hidden;" parent="16" vertex="1">
                    <mxGeometry x="40" width="140" height="30" as="geometry">
                        <mxRectangle width="140" height="30" as="alternateBounds"/>
                    </mxGeometry>
                </mxCell>
                <mxCell id="19" value="Cocktail" style="shape=table;startSize=30;container=1;collapsible=0;childLayout=tableLayout;fixedRows=1;rowLines=0;fontStyle=1;" parent="1" vertex="1">
                    <mxGeometry x="270" y="270" width="180" height="180" as="geometry"/>
                </mxCell>
                <mxCell id="20" value="" style="shape=tableRow;horizontal=0;startSize=0;swimlaneHead=0;swimlaneBody=0;top=0;left=0;bottom=0;right=0;collapsible=0;dropTarget=0;fillColor=none;points=[[0,0.5],[1,0.5]];portConstraint=eastwest;" parent="19" vertex="1">
                    <mxGeometry y="30" width="180" height="30" as="geometry"/>
                </mxCell>
                <mxCell id="21" value="INT" style="shape=partialRectangle;html=1;whiteSpace=wrap;connectable=0;fillColor=none;top=0;left=0;bottom=0;right=0;overflow=hidden;pointerEvents=1;" parent="20" vertex="1">
                    <mxGeometry width="40" height="30" as="geometry">
                        <mxRectangle width="40" height="30" as="alternateBounds"/>
                    </mxGeometry>
                </mxCell>
                <mxCell id="22" value="id_cocktail" style="shape=partialRectangle;html=1;whiteSpace=wrap;connectable=0;fillColor=none;top=0;left=0;bottom=0;right=0;align=left;spacingLeft=6;overflow=hidden;" parent="20" vertex="1">
                    <mxGeometry x="40" width="140" height="30" as="geometry">
                        <mxRectangle width="140" height="30" as="alternateBounds"/>
                    </mxGeometry>
                </mxCell>
                <mxCell id="23" value="" style="shape=tableRow;horizontal=0;startSize=0;swimlaneHead=0;swimlaneBody=0;top=0;left=0;bottom=0;right=0;collapsible=0;dropTarget=0;fillColor=none;points=[[0,0.5],[1,0.5]];portConstraint=eastwest;" parent="19" vertex="1">
                    <mxGeometry y="60" width="180" height="30" as="geometry"/>
                </mxCell>
                <mxCell id="24" value="String" style="shape=partialRectangle;html=1;whiteSpace=wrap;connectable=0;fillColor=none;top=0;left=0;bottom=0;right=0;overflow=hidden;" parent="23" vertex="1">
                    <mxGeometry width="40" height="30" as="geometry">
                        <mxRectangle width="40" height="30" as="alternateBounds"/>
                    </mxGeometry>
                </mxCell>
                <mxCell id="25" value="name" style="shape=partialRectangle;html=1;whiteSpace=wrap;connectable=0;fillColor=none;top=0;left=0;bottom=0;right=0;align=left;spacingLeft=6;overflow=hidden;" parent="23" vertex="1">
                    <mxGeometry x="40" width="140" height="30" as="geometry">
                        <mxRectangle width="140" height="30" as="alternateBounds"/>
                    </mxGeometry>
                </mxCell>
                <mxCell id="26" value="" style="shape=tableRow;horizontal=0;startSize=0;swimlaneHead=0;swimlaneBody=0;top=0;left=0;bottom=0;right=0;collapsible=0;dropTarget=0;fillColor=none;points=[[0,0.5],[1,0.5]];portConstraint=eastwest;" parent="19" vertex="1">
                    <mxGeometry y="90" width="180" height="30" as="geometry"/>
                </mxCell>
                <mxCell id="27" value="String" style="shape=partialRectangle;html=1;whiteSpace=wrap;connectable=0;fillColor=none;top=0;left=0;bottom=0;right=0;overflow=hidden;" parent="26" vertex="1">
                    <mxGeometry width="40" height="30" as="geometry">
                        <mxRectangle width="40" height="30" as="alternateBounds"/>
                    </mxGeometry>
                </mxCell>
                <mxCell id="28" value="price_S" style="shape=partialRectangle;html=1;whiteSpace=wrap;connectable=0;fillColor=none;top=0;left=0;bottom=0;right=0;align=left;spacingLeft=6;overflow=hidden;" parent="26" vertex="1">
                    <mxGeometry x="40" width="140" height="30" as="geometry">
                        <mxRectangle width="140" height="30" as="alternateBounds"/>
                    </mxGeometry>
                </mxCell>
                <mxCell id="29" style="shape=tableRow;horizontal=0;startSize=0;swimlaneHead=0;swimlaneBody=0;top=0;left=0;bottom=0;right=0;collapsible=0;dropTarget=0;fillColor=none;points=[[0,0.5],[1,0.5]];portConstraint=eastwest;" parent="19" vertex="1">
                    <mxGeometry y="120" width="180" height="30" as="geometry"/>
                </mxCell>
                <mxCell id="30" value="String" style="shape=partialRectangle;html=1;whiteSpace=wrap;connectable=0;fillColor=none;top=0;left=0;bottom=0;right=0;overflow=hidden;" parent="29" vertex="1">
                    <mxGeometry width="40" height="30" as="geometry">
                        <mxRectangle width="40" height="30" as="alternateBounds"/>
                    </mxGeometry>
                </mxCell>
                <mxCell id="31" value="price_M" style="shape=partialRectangle;html=1;whiteSpace=wrap;connectable=0;fillColor=none;top=0;left=0;bottom=0;right=0;align=left;spacingLeft=6;overflow=hidden;" parent="29" vertex="1">
                    <mxGeometry x="40" width="140" height="30" as="geometry">
                        <mxRectangle width="140" height="30" as="alternateBounds"/>
                    </mxGeometry>
                </mxCell>
                <mxCell id="32" style="shape=tableRow;horizontal=0;startSize=0;swimlaneHead=0;swimlaneBody=0;top=0;left=0;bottom=0;right=0;collapsible=0;dropTarget=0;fillColor=none;points=[[0,0.5],[1,0.5]];portConstraint=eastwest;" parent="19" vertex="1">
                    <mxGeometry y="150" width="180" height="30" as="geometry"/>
                </mxCell>
                <mxCell id="33" value="String" style="shape=partialRectangle;html=1;whiteSpace=wrap;connectable=0;fillColor=none;top=0;left=0;bottom=0;right=0;overflow=hidden;" parent="32" vertex="1">
                    <mxGeometry width="40" height="30" as="geometry">
                        <mxRectangle width="40" height="30" as="alternateBounds"/>
                    </mxGeometry>
                </mxCell>
                <mxCell id="34" value="price_L" style="shape=partialRectangle;html=1;whiteSpace=wrap;connectable=0;fillColor=none;top=0;left=0;bottom=0;right=0;align=left;spacingLeft=6;overflow=hidden;" parent="32" vertex="1">
                    <mxGeometry x="40" width="140" height="30" as="geometry">
                        <mxRectangle width="140" height="30" as="alternateBounds"/>
                    </mxGeometry>
                </mxCell>
                <mxCell id="35" value="Cocktail" style="shape=table;startSize=30;container=1;collapsible=0;childLayout=tableLayout;fixedRows=1;rowLines=0;fontStyle=1;" parent="1" vertex="1">
                    <mxGeometry x="610" y="80" width="180" height="90" as="geometry"/>
                </mxCell>
                <mxCell id="36" value="" style="shape=tableRow;horizontal=0;startSize=0;swimlaneHead=0;swimlaneBody=0;top=0;left=0;bottom=0;right=0;collapsible=0;dropTarget=0;fillColor=none;points=[[0,0.5],[1,0.5]];portConstraint=eastwest;" parent="35" vertex="1">
                    <mxGeometry y="30" width="180" height="30" as="geometry"/>
                </mxCell>
                <mxCell id="37" value="INT" style="shape=partialRectangle;html=1;whiteSpace=wrap;connectable=0;fillColor=none;top=0;left=0;bottom=0;right=0;overflow=hidden;pointerEvents=1;" parent="36" vertex="1">
                    <mxGeometry width="40" height="30" as="geometry">
                        <mxRectangle width="40" height="30" as="alternateBounds"/>
                    </mxGeometry>
                </mxCell>
                <mxCell id="38" value="id_categorie" style="shape=partialRectangle;html=1;whiteSpace=wrap;connectable=0;fillColor=none;top=0;left=0;bottom=0;right=0;align=left;spacingLeft=6;overflow=hidden;" parent="36" vertex="1">
                    <mxGeometry x="40" width="140" height="30" as="geometry">
                        <mxRectangle width="140" height="30" as="alternateBounds"/>
                    </mxGeometry>
                </mxCell>
                <mxCell id="39" value="" style="shape=tableRow;horizontal=0;startSize=0;swimlaneHead=0;swimlaneBody=0;top=0;left=0;bottom=0;right=0;collapsible=0;dropTarget=0;fillColor=none;points=[[0,0.5],[1,0.5]];portConstraint=eastwest;" parent="35" vertex="1">
                    <mxGeometry y="60" width="180" height="30" as="geometry"/>
                </mxCell>
                <mxCell id="40" value="String" style="shape=partialRectangle;html=1;whiteSpace=wrap;connectable=0;fillColor=none;top=0;left=0;bottom=0;right=0;overflow=hidden;" parent="39" vertex="1">
                    <mxGeometry width="40" height="30" as="geometry">
                        <mxRectangle width="40" height="30" as="alternateBounds"/>
                    </mxGeometry>
                </mxCell>
                <mxCell id="41" value="name" style="shape=partialRectangle;html=1;whiteSpace=wrap;connectable=0;fillColor=none;top=0;left=0;bottom=0;right=0;align=left;spacingLeft=6;overflow=hidden;" parent="39" vertex="1">
                    <mxGeometry x="40" width="140" height="30" as="geometry">
                        <mxRectangle width="140" height="30" as="alternateBounds"/>
                    </mxGeometry>
                </mxCell>
                <mxCell id="52" value="Cocktail_Category" style="shape=table;startSize=30;container=1;collapsible=0;childLayout=tableLayout;fixedRows=1;rowLines=0;fontStyle=1;" parent="1" vertex="1">
                    <mxGeometry x="530" y="210" width="180" height="90" as="geometry"/>
                </mxCell>
                <mxCell id="53" value="" style="shape=tableRow;horizontal=0;startSize=0;swimlaneHead=0;swimlaneBody=0;top=0;left=0;bottom=0;right=0;collapsible=0;dropTarget=0;fillColor=none;points=[[0,0.5],[1,0.5]];portConstraint=eastwest;" parent="52" vertex="1">
                    <mxGeometry y="30" width="180" height="30" as="geometry"/>
                </mxCell>
                <mxCell id="54" value="INT" style="shape=partialRectangle;html=1;whiteSpace=wrap;connectable=0;fillColor=none;top=0;left=0;bottom=0;right=0;overflow=hidden;pointerEvents=1;" parent="53" vertex="1">
                    <mxGeometry width="40" height="30" as="geometry">
                        <mxRectangle width="40" height="30" as="alternateBounds"/>
                    </mxGeometry>
                </mxCell>
                <mxCell id="55" value="id_categorie" style="shape=partialRectangle;html=1;whiteSpace=wrap;connectable=0;fillColor=none;top=0;left=0;bottom=0;right=0;align=left;spacingLeft=6;overflow=hidden;" parent="53" vertex="1">
                    <mxGeometry x="40" width="140" height="30" as="geometry">
                        <mxRectangle width="140" height="30" as="alternateBounds"/>
                    </mxGeometry>
                </mxCell>
                <mxCell id="56" value="" style="shape=tableRow;horizontal=0;startSize=0;swimlaneHead=0;swimlaneBody=0;top=0;left=0;bottom=0;right=0;collapsible=0;dropTarget=0;fillColor=none;points=[[0,0.5],[1,0.5]];portConstraint=eastwest;" parent="52" vertex="1">
                    <mxGeometry y="60" width="180" height="30" as="geometry"/>
                </mxCell>
                <mxCell id="57" value="INT" style="shape=partialRectangle;html=1;whiteSpace=wrap;connectable=0;fillColor=none;top=0;left=0;bottom=0;right=0;overflow=hidden;" parent="56" vertex="1">
                    <mxGeometry width="40" height="30" as="geometry">
                        <mxRectangle width="40" height="30" as="alternateBounds"/>
                    </mxGeometry>
                </mxCell>
                <mxCell id="58" value="id_Cocktail" style="shape=partialRectangle;html=1;whiteSpace=wrap;connectable=0;fillColor=none;top=0;left=0;bottom=0;right=0;align=left;spacingLeft=6;overflow=hidden;" parent="56" vertex="1">
                    <mxGeometry x="40" width="140" height="30" as="geometry">
                        <mxRectangle width="140" height="30" as="alternateBounds"/>
                    </mxGeometry>
                </mxCell>
                <mxCell id="59" style="edgeStyle=none;html=1;exitX=1;exitY=0.5;exitDx=0;exitDy=0;entryX=0;entryY=0.5;entryDx=0;entryDy=0;" parent="1" source="20" target="53" edge="1">
                    <mxGeometry relative="1" as="geometry"/>
                </mxCell>
                <mxCell id="60" style="edgeStyle=none;html=1;exitX=0;exitY=0.5;exitDx=0;exitDy=0;entryX=0.222;entryY=0;entryDx=0;entryDy=0;entryPerimeter=0;" parent="1" source="36" target="52" edge="1">
                    <mxGeometry relative="1" as="geometry"/>
                </mxCell>
                <mxCell id="61" value="n,n" style="text;html=1;align=center;verticalAlign=middle;resizable=0;points=[];autosize=1;strokeColor=none;fillColor=none;" parent="1" vertex="1">
                    <mxGeometry x="525" y="170" width="40" height="30" as="geometry"/>
                </mxCell>
                <mxCell id="62" value="Ingredient" style="shape=table;startSize=30;container=1;collapsible=0;childLayout=tableLayout;fixedRows=1;rowLines=0;fontStyle=1;" parent="1" vertex="1">
                    <mxGeometry x="620" y="350" width="180" height="90" as="geometry"/>
                </mxCell>
                <mxCell id="63" value="" style="shape=tableRow;horizontal=0;startSize=0;swimlaneHead=0;swimlaneBody=0;top=0;left=0;bottom=0;right=0;collapsible=0;dropTarget=0;fillColor=none;points=[[0,0.5],[1,0.5]];portConstraint=eastwest;" parent="62" vertex="1">
                    <mxGeometry y="30" width="180" height="30" as="geometry"/>
                </mxCell>
                <mxCell id="64" value="INT" style="shape=partialRectangle;html=1;whiteSpace=wrap;connectable=0;fillColor=none;top=0;left=0;bottom=0;right=0;overflow=hidden;pointerEvents=1;" parent="63" vertex="1">
                    <mxGeometry width="40" height="30" as="geometry">
                        <mxRectangle width="40" height="30" as="alternateBounds"/>
                    </mxGeometry>
                </mxCell>
                <mxCell id="65" value="id_categorie" style="shape=partialRectangle;html=1;whiteSpace=wrap;connectable=0;fillColor=none;top=0;left=0;bottom=0;right=0;align=left;spacingLeft=6;overflow=hidden;" parent="63" vertex="1">
                    <mxGeometry x="40" width="140" height="30" as="geometry">
                        <mxRectangle width="140" height="30" as="alternateBounds"/>
                    </mxGeometry>
                </mxCell>
                <mxCell id="66" value="" style="shape=tableRow;horizontal=0;startSize=0;swimlaneHead=0;swimlaneBody=0;top=0;left=0;bottom=0;right=0;collapsible=0;dropTarget=0;fillColor=none;points=[[0,0.5],[1,0.5]];portConstraint=eastwest;" parent="62" vertex="1">
                    <mxGeometry y="60" width="180" height="30" as="geometry"/>
                </mxCell>
                <mxCell id="67" value="String" style="shape=partialRectangle;html=1;whiteSpace=wrap;connectable=0;fillColor=none;top=0;left=0;bottom=0;right=0;overflow=hidden;" parent="66" vertex="1">
                    <mxGeometry width="40" height="30" as="geometry">
                        <mxRectangle width="40" height="30" as="alternateBounds"/>
                    </mxGeometry>
                </mxCell>
                <mxCell id="68" value="name" style="shape=partialRectangle;html=1;whiteSpace=wrap;connectable=0;fillColor=none;top=0;left=0;bottom=0;right=0;align=left;spacingLeft=6;overflow=hidden;" parent="66" vertex="1">
                    <mxGeometry x="40" width="140" height="30" as="geometry">
                        <mxRectangle width="140" height="30" as="alternateBounds"/>
                    </mxGeometry>
                </mxCell>
                <mxCell id="69" value="Cocktail_Ingredient" style="shape=table;startSize=30;container=1;collapsible=0;childLayout=tableLayout;fixedRows=1;rowLines=0;fontStyle=1;" parent="1" vertex="1">
                    <mxGeometry x="290" y="120" width="180" height="90" as="geometry"/>
                </mxCell>
                <mxCell id="70" value="" style="shape=tableRow;horizontal=0;startSize=0;swimlaneHead=0;swimlaneBody=0;top=0;left=0;bottom=0;right=0;collapsible=0;dropTarget=0;fillColor=none;points=[[0,0.5],[1,0.5]];portConstraint=eastwest;" parent="69" vertex="1">
                    <mxGeometry y="30" width="180" height="30" as="geometry"/>
                </mxCell>
                <mxCell id="71" value="INT" style="shape=partialRectangle;html=1;whiteSpace=wrap;connectable=0;fillColor=none;top=0;left=0;bottom=0;right=0;overflow=hidden;pointerEvents=1;" parent="70" vertex="1">
                    <mxGeometry width="40" height="30" as="geometry">
                        <mxRectangle width="40" height="30" as="alternateBounds"/>
                    </mxGeometry>
                </mxCell>
                <mxCell id="72" value="id_ingredient" style="shape=partialRectangle;html=1;whiteSpace=wrap;connectable=0;fillColor=none;top=0;left=0;bottom=0;right=0;align=left;spacingLeft=6;overflow=hidden;" parent="70" vertex="1">
                    <mxGeometry x="40" width="140" height="30" as="geometry">
                        <mxRectangle width="140" height="30" as="alternateBounds"/>
                    </mxGeometry>
                </mxCell>
                <mxCell id="73" value="" style="shape=tableRow;horizontal=0;startSize=0;swimlaneHead=0;swimlaneBody=0;top=0;left=0;bottom=0;right=0;collapsible=0;dropTarget=0;fillColor=none;points=[[0,0.5],[1,0.5]];portConstraint=eastwest;" parent="69" vertex="1">
                    <mxGeometry y="60" width="180" height="30" as="geometry"/>
                </mxCell>
                <mxCell id="74" value="INT" style="shape=partialRectangle;html=1;whiteSpace=wrap;connectable=0;fillColor=none;top=0;left=0;bottom=0;right=0;overflow=hidden;" parent="73" vertex="1">
                    <mxGeometry width="40" height="30" as="geometry">
                        <mxRectangle width="40" height="30" as="alternateBounds"/>
                    </mxGeometry>
                </mxCell>
                <mxCell id="75" value="id_Cocktail" style="shape=partialRectangle;html=1;whiteSpace=wrap;connectable=0;fillColor=none;top=0;left=0;bottom=0;right=0;align=left;spacingLeft=6;overflow=hidden;" parent="73" vertex="1">
                    <mxGeometry x="40" width="140" height="30" as="geometry">
                        <mxRectangle width="140" height="30" as="alternateBounds"/>
                    </mxGeometry>
                </mxCell>
                <mxCell id="77" style="edgeStyle=none;html=1;exitX=0;exitY=0.5;exitDx=0;exitDy=0;entryX=1;entryY=0.5;entryDx=0;entryDy=0;" parent="1" source="63" target="70" edge="1">
                    <mxGeometry relative="1" as="geometry"/>
                </mxCell>
                <mxCell id="78" value="n,n" style="text;html=1;align=center;verticalAlign=middle;resizable=0;points=[];autosize=1;strokeColor=none;fillColor=none;" parent="1" vertex="1">
                    <mxGeometry x="465" y="250" width="40" height="30" as="geometry"/>
                </mxCell>
                <mxCell id="79" value="" style="dashed=0;outlineConnect=0;html=1;align=center;labelPosition=center;verticalLabelPosition=bottom;verticalAlign=top;shape=mxgraph.webicons.github;gradientColor=#DFDEDE" parent="1" vertex="1">
                    <mxGeometry x="310" y="10" width="60" height="70" as="geometry"/>
                </mxCell>
                <mxCell id="81" value="" style="dashed=0;outlineConnect=0;html=1;align=center;labelPosition=center;verticalLabelPosition=bottom;verticalAlign=top;shape=mxgraph.webicons.json;gradientColor=#DFDEDE" parent="1" vertex="1">
                    <mxGeometry x="500" y="10" width="60" height="70" as="geometry"/>
                </mxCell>
                <mxCell id="98" value="Taille" style="shape=table;startSize=30;container=1;collapsible=0;childLayout=tableLayout;fixedRows=1;rowLines=0;fontStyle=1;" parent="1" vertex="1">
                    <mxGeometry x="40" y="360" width="180" height="90" as="geometry"/>
                </mxCell>
                <mxCell id="99" value="" style="shape=tableRow;horizontal=0;startSize=0;swimlaneHead=0;swimlaneBody=0;top=0;left=0;bottom=0;right=0;collapsible=0;dropTarget=0;fillColor=none;points=[[0,0.5],[1,0.5]];portConstraint=eastwest;" parent="98" vertex="1">
                    <mxGeometry y="30" width="180" height="30" as="geometry"/>
                </mxCell>
                <mxCell id="100" value="INT" style="shape=partialRectangle;html=1;whiteSpace=wrap;connectable=0;fillColor=none;top=0;left=0;bottom=0;right=0;overflow=hidden;pointerEvents=1;" parent="99" vertex="1">
                    <mxGeometry width="40" height="30" as="geometry">
                        <mxRectangle width="40" height="30" as="alternateBounds"/>
                    </mxGeometry>
                </mxCell>
                <mxCell id="101" value="id_taille" style="shape=partialRectangle;html=1;whiteSpace=wrap;connectable=0;fillColor=none;top=0;left=0;bottom=0;right=0;align=left;spacingLeft=6;overflow=hidden;" parent="99" vertex="1">
                    <mxGeometry x="40" width="140" height="30" as="geometry">
                        <mxRectangle width="140" height="30" as="alternateBounds"/>
                    </mxGeometry>
                </mxCell>
                <mxCell id="102" value="" style="shape=tableRow;horizontal=0;startSize=0;swimlaneHead=0;swimlaneBody=0;top=0;left=0;bottom=0;right=0;collapsible=0;dropTarget=0;fillColor=none;points=[[0,0.5],[1,0.5]];portConstraint=eastwest;" parent="98" vertex="1">
                    <mxGeometry y="60" width="180" height="30" as="geometry"/>
                </mxCell>
                <mxCell id="103" value="String" style="shape=partialRectangle;html=1;whiteSpace=wrap;connectable=0;fillColor=none;top=0;left=0;bottom=0;right=0;overflow=hidden;" parent="102" vertex="1">
                    <mxGeometry width="40" height="30" as="geometry">
                        <mxRectangle width="40" height="30" as="alternateBounds"/>
                    </mxGeometry>
                </mxCell>
                <mxCell id="104" value="name" style="shape=partialRectangle;html=1;whiteSpace=wrap;connectable=0;fillColor=none;top=0;left=0;bottom=0;right=0;align=left;spacingLeft=6;overflow=hidden;" parent="102" vertex="1">
                    <mxGeometry x="40" width="140" height="30" as="geometry">
                        <mxRectangle width="140" height="30" as="alternateBounds"/>
                    </mxGeometry>
                </mxCell>
                <mxCell id="108" style="edgeStyle=none;html=1;exitX=1;exitY=0.5;exitDx=0;exitDy=0;entryX=1.02;entryY=0.29;entryDx=0;entryDy=0;entryPerimeter=0;" parent="1" source="20" target="73" edge="1">
                    <mxGeometry relative="1" as="geometry"/>
                </mxCell>
                <mxCell id="109" value="Commande" style="shape=table;startSize=30;container=1;collapsible=0;childLayout=tableLayout;fixedRows=1;rowLines=0;fontStyle=1;" parent="1" vertex="1">
                    <mxGeometry x="530" y="530" width="180" height="120" as="geometry"/>
                </mxCell>
                <mxCell id="110" value="" style="shape=tableRow;horizontal=0;startSize=0;swimlaneHead=0;swimlaneBody=0;top=0;left=0;bottom=0;right=0;collapsible=0;dropTarget=0;fillColor=none;points=[[0,0.5],[1,0.5]];portConstraint=eastwest;" parent="109" vertex="1">
                    <mxGeometry y="30" width="180" height="30" as="geometry"/>
                </mxCell>
                <mxCell id="111" value="INT" style="shape=partialRectangle;html=1;whiteSpace=wrap;connectable=0;fillColor=none;top=0;left=0;bottom=0;right=0;overflow=hidden;pointerEvents=1;" parent="110" vertex="1">
                    <mxGeometry width="40" height="30" as="geometry">
                        <mxRectangle width="40" height="30" as="alternateBounds"/>
                    </mxGeometry>
                </mxCell>
                <mxCell id="112" value="id_commande" style="shape=partialRectangle;html=1;whiteSpace=wrap;connectable=0;fillColor=none;top=0;left=0;bottom=0;right=0;align=left;spacingLeft=6;overflow=hidden;" parent="110" vertex="1">
                    <mxGeometry x="40" width="140" height="30" as="geometry">
                        <mxRectangle width="140" height="30" as="alternateBounds"/>
                    </mxGeometry>
                </mxCell>
                <mxCell id="113" value="" style="shape=tableRow;horizontal=0;startSize=0;swimlaneHead=0;swimlaneBody=0;top=0;left=0;bottom=0;right=0;collapsible=0;dropTarget=0;fillColor=none;points=[[0,0.5],[1,0.5]];portConstraint=eastwest;" parent="109" vertex="1">
                    <mxGeometry y="60" width="180" height="30" as="geometry"/>
                </mxCell>
                <mxCell id="114" value="String" style="shape=partialRectangle;html=1;whiteSpace=wrap;connectable=0;fillColor=none;top=0;left=0;bottom=0;right=0;overflow=hidden;" parent="113" vertex="1">
                    <mxGeometry width="40" height="30" as="geometry">
                        <mxRectangle width="40" height="30" as="alternateBounds"/>
                    </mxGeometry>
                </mxCell>
                <mxCell id="115" value="status_commande" style="shape=partialRectangle;html=1;whiteSpace=wrap;connectable=0;fillColor=none;top=0;left=0;bottom=0;right=0;align=left;spacingLeft=6;overflow=hidden;" parent="113" vertex="1">
                    <mxGeometry x="40" width="140" height="30" as="geometry">
                        <mxRectangle width="140" height="30" as="alternateBounds"/>
                    </mxGeometry>
                </mxCell>
                <mxCell id="116" style="shape=tableRow;horizontal=0;startSize=0;swimlaneHead=0;swimlaneBody=0;top=0;left=0;bottom=0;right=0;collapsible=0;dropTarget=0;fillColor=none;points=[[0,0.5],[1,0.5]];portConstraint=eastwest;" parent="109" vertex="1">
                    <mxGeometry y="90" width="180" height="30" as="geometry"/>
                </mxCell>
                <mxCell id="117" value="Date" style="shape=partialRectangle;html=1;whiteSpace=wrap;connectable=0;fillColor=none;top=0;left=0;bottom=0;right=0;overflow=hidden;" parent="116" vertex="1">
                    <mxGeometry width="40" height="30" as="geometry">
                        <mxRectangle width="40" height="30" as="alternateBounds"/>
                    </mxGeometry>
                </mxCell>
                <mxCell id="118" value="created" style="shape=partialRectangle;html=1;whiteSpace=wrap;connectable=0;fillColor=none;top=0;left=0;bottom=0;right=0;align=left;spacingLeft=6;overflow=hidden;" parent="116" vertex="1">
                    <mxGeometry x="40" width="140" height="30" as="geometry">
                        <mxRectangle width="140" height="30" as="alternateBounds"/>
                    </mxGeometry>
                </mxCell>
                <mxCell id="119" value="Cocktail" style="shape=table;startSize=30;container=1;collapsible=0;childLayout=tableLayout;fixedRows=1;rowLines=0;fontStyle=1;" parent="1" vertex="1">
                    <mxGeometry x="170" y="550" width="180" height="180" as="geometry"/>
                </mxCell>
                <mxCell id="120" value="" style="shape=tableRow;horizontal=0;startSize=0;swimlaneHead=0;swimlaneBody=0;top=0;left=0;bottom=0;right=0;collapsible=0;dropTarget=0;fillColor=none;points=[[0,0.5],[1,0.5]];portConstraint=eastwest;" parent="119" vertex="1">
                    <mxGeometry y="30" width="180" height="30" as="geometry"/>
                </mxCell>
                <mxCell id="121" value="INT" style="shape=partialRectangle;html=1;whiteSpace=wrap;connectable=0;fillColor=none;top=0;left=0;bottom=0;right=0;overflow=hidden;pointerEvents=1;" parent="120" vertex="1">
                    <mxGeometry width="40" height="30" as="geometry">
                        <mxRectangle width="40" height="30" as="alternateBounds"/>
                    </mxGeometry>
                </mxCell>
                <mxCell id="122" value="id_cocktail" style="shape=partialRectangle;html=1;whiteSpace=wrap;connectable=0;fillColor=none;top=0;left=0;bottom=0;right=0;align=left;spacingLeft=6;overflow=hidden;" parent="120" vertex="1">
                    <mxGeometry x="40" width="140" height="30" as="geometry">
                        <mxRectangle width="140" height="30" as="alternateBounds"/>
                    </mxGeometry>
                </mxCell>
                <mxCell id="123" value="" style="shape=tableRow;horizontal=0;startSize=0;swimlaneHead=0;swimlaneBody=0;top=0;left=0;bottom=0;right=0;collapsible=0;dropTarget=0;fillColor=none;points=[[0,0.5],[1,0.5]];portConstraint=eastwest;" parent="119" vertex="1">
                    <mxGeometry y="60" width="180" height="30" as="geometry"/>
                </mxCell>
                <mxCell id="124" value="INT" style="shape=partialRectangle;html=1;whiteSpace=wrap;connectable=0;fillColor=none;top=0;left=0;bottom=0;right=0;overflow=hidden;" parent="123" vertex="1">
                    <mxGeometry width="40" height="30" as="geometry">
                        <mxRectangle width="40" height="30" as="alternateBounds"/>
                    </mxGeometry>
                </mxCell>
                <mxCell id="125" value="id_commande" style="shape=partialRectangle;html=1;whiteSpace=wrap;connectable=0;fillColor=none;top=0;left=0;bottom=0;right=0;align=left;spacingLeft=6;overflow=hidden;" parent="123" vertex="1">
                    <mxGeometry x="40" width="140" height="30" as="geometry">
                        <mxRectangle width="140" height="30" as="alternateBounds"/>
                    </mxGeometry>
                </mxCell>
                <mxCell id="126" value="" style="shape=tableRow;horizontal=0;startSize=0;swimlaneHead=0;swimlaneBody=0;top=0;left=0;bottom=0;right=0;collapsible=0;dropTarget=0;fillColor=none;points=[[0,0.5],[1,0.5]];portConstraint=eastwest;" parent="119" vertex="1">
                    <mxGeometry y="90" width="180" height="30" as="geometry"/>
                </mxCell>
                <mxCell id="127" value="INT" style="shape=partialRectangle;html=1;whiteSpace=wrap;connectable=0;fillColor=none;top=0;left=0;bottom=0;right=0;overflow=hidden;" parent="126" vertex="1">
                    <mxGeometry width="40" height="30" as="geometry">
                        <mxRectangle width="40" height="30" as="alternateBounds"/>
                    </mxGeometry>
                </mxCell>
                <mxCell id="128" value="id_taille" style="shape=partialRectangle;html=1;whiteSpace=wrap;connectable=0;fillColor=none;top=0;left=0;bottom=0;right=0;align=left;spacingLeft=6;overflow=hidden;" parent="126" vertex="1">
                    <mxGeometry x="40" width="140" height="30" as="geometry">
                        <mxRectangle width="140" height="30" as="alternateBounds"/>
                    </mxGeometry>
                </mxCell>
                <mxCell id="129" style="shape=tableRow;horizontal=0;startSize=0;swimlaneHead=0;swimlaneBody=0;top=0;left=0;bottom=0;right=0;collapsible=0;dropTarget=0;fillColor=none;points=[[0,0.5],[1,0.5]];portConstraint=eastwest;" parent="119" vertex="1">
                    <mxGeometry y="120" width="180" height="30" as="geometry"/>
                </mxCell>
                <mxCell id="130" value="INT" style="shape=partialRectangle;html=1;whiteSpace=wrap;connectable=0;fillColor=none;top=0;left=0;bottom=0;right=0;overflow=hidden;" parent="129" vertex="1">
                    <mxGeometry width="40" height="30" as="geometry">
                        <mxRectangle width="40" height="30" as="alternateBounds"/>
                    </mxGeometry>
                </mxCell>
                <mxCell id="131" value="quantity" style="shape=partialRectangle;html=1;whiteSpace=wrap;connectable=0;fillColor=none;top=0;left=0;bottom=0;right=0;align=left;spacingLeft=6;overflow=hidden;" parent="129" vertex="1">
                    <mxGeometry x="40" width="140" height="30" as="geometry">
                        <mxRectangle width="140" height="30" as="alternateBounds"/>
                    </mxGeometry>
                </mxCell>
                <mxCell id="132" style="shape=tableRow;horizontal=0;startSize=0;swimlaneHead=0;swimlaneBody=0;top=0;left=0;bottom=0;right=0;collapsible=0;dropTarget=0;fillColor=none;points=[[0,0.5],[1,0.5]];portConstraint=eastwest;" parent="119" vertex="1">
                    <mxGeometry y="150" width="180" height="30" as="geometry"/>
                </mxCell>
                <mxCell id="133" value="String" style="shape=partialRectangle;html=1;whiteSpace=wrap;connectable=0;fillColor=none;top=0;left=0;bottom=0;right=0;overflow=hidden;" parent="132" vertex="1">
                    <mxGeometry width="40" height="30" as="geometry">
                        <mxRectangle width="40" height="30" as="alternateBounds"/>
                    </mxGeometry>
                </mxCell>
                <mxCell id="134" value="status_cocktail" style="shape=partialRectangle;html=1;whiteSpace=wrap;connectable=0;fillColor=none;top=0;left=0;bottom=0;right=0;align=left;spacingLeft=6;overflow=hidden;" parent="132" vertex="1">
                    <mxGeometry x="40" width="140" height="30" as="geometry">
                        <mxRectangle width="140" height="30" as="alternateBounds"/>
                    </mxGeometry>
                </mxCell>
                <mxCell id="135" style="edgeStyle=none;html=1;exitX=0;exitY=0.5;exitDx=0;exitDy=0;entryX=0.997;entryY=0.779;entryDx=0;entryDy=0;entryPerimeter=0;" parent="1" source="110" target="123" edge="1">
                    <mxGeometry relative="1" as="geometry"/>
                </mxCell>
                <mxCell id="136" style="edgeStyle=none;html=1;exitX=1;exitY=0.5;exitDx=0;exitDy=0;entryX=1;entryY=0.5;entryDx=0;entryDy=0;" parent="1" source="20" target="120" edge="1">
                    <mxGeometry relative="1" as="geometry"/>
                </mxCell>
                <mxCell id="137" style="edgeStyle=none;html=1;exitX=1;exitY=0.5;exitDx=0;exitDy=0;entryX=0;entryY=0.5;entryDx=0;entryDy=0;" parent="1" source="99" target="126" edge="1">
                    <mxGeometry relative="1" as="geometry"/>
                </mxCell>
                <mxCell id="138" value="1,n" style="text;html=1;align=center;verticalAlign=middle;resizable=0;points=[];autosize=1;strokeColor=none;fillColor=none;" parent="1" vertex="1">
                    <mxGeometry x="150" y="495" width="40" height="30" as="geometry"/>
                </mxCell>
                <mxCell id="139" value="1,n" style="text;html=1;align=center;verticalAlign=middle;resizable=0;points=[];autosize=1;strokeColor=none;fillColor=none;" parent="1" vertex="1">
                    <mxGeometry x="330" y="495" width="40" height="30" as="geometry"/>
                </mxCell>
                <mxCell id="140" value="1,n" style="text;html=1;align=center;verticalAlign=middle;resizable=0;points=[];autosize=1;strokeColor=none;fillColor=none;" parent="1" vertex="1">
                    <mxGeometry x="420" y="610" width="40" height="30" as="geometry"/>
                </mxCell>
            </root>
        </mxGraphModel>
    </diagram>
</mxfile>